<svg width="160" height="48" viewBox="0 0 160 48" fill="none" xmlns="http://www.w3.org/2000/svg">
<g clip-path="url(#clip0_725_1516)" filter="url(#filter0_b_725_1516)">
<g filter="url(#filter1_b_725_1516)">
<path d="M153.102 0.625H7.24652C3.49193 0.625 0.448242 3.50016 0.448242 7.04686V40.4701C0.448242 44.0168 3.49193 46.8919 7.24652 46.8919H153.102C156.856 46.8919 159.9 44.0168 159.9 40.4701V7.04686C159.9 3.50016 156.856 0.625 153.102 0.625Z" fill="#D9D9D9" fill-opacity="0.01"/>
<path d="M153.102 0.625H7.24652C3.49193 0.625 0.448242 3.50016 0.448242 7.04686V40.4701C0.448242 44.0168 3.49193 46.8919 7.24652 46.8919H153.102C156.856 46.8919 159.9 44.0168 159.9 40.4701V7.04686C159.9 3.50016 156.856 0.625 153.102 0.625Z" stroke="white" stroke-opacity="0.1" stroke-width="1.08053"/>
</g>
<path d="M84.2895 15.7187C83.221 15.7187 82.3203 15.3425 81.608 14.6019C80.9016 13.882 80.5071 12.8896 80.5248 11.8764C80.5248 10.7951 80.8898 9.87974 81.608 9.15395C82.3174 8.41334 83.218 8.03711 84.2865 8.03711C85.3432 8.03711 86.2439 8.41334 86.968 9.15395C87.6862 9.90344 88.0512 10.8188 88.0512 11.8764C88.0394 12.9607 87.6744 13.8761 86.968 14.5989C86.2586 15.3454 85.3579 15.7187 84.2895 15.7187ZM52.4973 15.7187C51.4523 15.7187 50.5458 15.3484 49.804 14.6167C49.0682 13.8879 48.6943 12.9666 48.6943 11.8794C48.6943 10.7922 49.0682 9.87086 49.804 9.1421C50.531 8.41038 51.4376 8.04007 52.4973 8.04007C53.0153 8.04007 53.5186 8.14376 54.0014 8.35409C54.4753 8.5585 54.8609 8.83697 55.1464 9.17765L55.217 9.26356L54.4193 10.0516L54.3369 9.9538C53.8866 9.41464 53.2832 9.15098 52.4855 9.15098C51.7732 9.15098 51.1521 9.40575 50.64 9.90937C50.1249 10.4159 49.8629 11.0795 49.8629 11.8823C49.8629 12.6852 50.1249 13.3488 50.64 13.8553C51.1521 14.3589 51.7732 14.6137 52.4855 14.6137C53.2449 14.6137 53.8836 14.3589 54.3811 13.8553C54.6754 13.5591 54.8579 13.1443 54.9227 12.62H52.3648V11.512H56.0206L56.0353 11.6128C56.0618 11.7994 56.0883 11.992 56.0883 12.1697C56.0883 13.1917 55.7822 14.0183 55.1758 14.6285C54.487 15.3514 53.5863 15.7187 52.4973 15.7187ZM94.7681 15.5617H93.6408L90.1881 10.0012L90.2176 11.0025V15.5587H89.0902V8.19708H90.3765L90.4118 8.25337L93.6585 13.4909L93.629 12.4926V8.19708H94.7681V15.5617ZM75.8182 15.5617H74.6762V9.30503H72.6952V8.19708H77.7962V9.30503H75.8153V15.5617H75.8182ZM71.7651 15.5617H70.626V8.19708H71.7651V15.5617ZM65.3631 15.5617H64.224V9.30503H62.243V8.19708H67.344V9.30503H65.3631V15.5617ZM61.5219 15.5498H57.1538V8.19708H61.5219V9.30503H58.2959V11.3254H61.2069V12.4215H58.2959V14.4419H61.5219V15.5498ZM82.4439 13.8405C82.9531 14.353 83.5713 14.6107 84.2895 14.6107C85.0283 14.6107 85.6317 14.3589 86.135 13.8405C86.6354 13.3369 86.8885 12.6763 86.8885 11.8794C86.8885 11.0825 86.6354 10.4189 86.1379 9.91825C85.6287 9.40575 85.0077 9.14802 84.2924 9.14802C83.5536 9.14802 82.9502 9.39983 82.4498 9.91825C81.9494 10.4219 81.6963 11.0825 81.6963 11.8794C81.6963 12.6763 81.9465 13.3399 82.4439 13.8405Z" fill="white"/>
<path fill-rule="evenodd" clip-rule="evenodd" d="M80.4174 25.8442C77.6359 25.8442 75.3812 27.9683 75.3812 30.8982C75.3812 33.8013 77.6506 35.9521 80.4174 35.9521C83.199 35.9521 85.4537 33.8132 85.4537 30.8982C85.4537 27.9683 83.199 25.8442 80.4174 25.8442ZM80.4174 33.9495C78.8957 33.9495 77.5858 32.6815 77.5858 30.8863C77.5858 29.0644 78.8986 27.8231 80.4174 27.8231C81.9392 27.8231 83.249 29.0644 83.249 30.8863C83.252 32.6934 81.9392 33.9495 80.4174 33.9495ZM69.4295 25.8442C66.648 25.8442 64.3933 27.9683 64.3933 30.8982C64.3933 33.8013 66.6627 35.9521 69.4295 35.9521C72.2111 35.9521 74.4658 33.8132 74.4658 30.8982C74.4658 27.9683 72.2082 25.8442 69.4295 25.8442ZM69.4295 33.9495C67.9078 33.9495 66.5979 32.6815 66.5979 30.8863C66.5979 29.0644 67.9107 27.8231 69.4295 27.8231C70.9513 27.8231 72.2611 29.0644 72.2611 30.8863C72.2611 32.6934 70.9513 33.9495 69.4295 33.9495ZM56.3547 27.3877V29.5265H61.4557C61.2997 30.7263 60.9053 31.6121 60.3019 32.2194C59.5543 32.9719 58.4004 33.7895 56.3665 33.7895C53.2317 33.7895 50.7798 31.2418 50.7798 28.0868C50.7798 24.9318 53.2317 22.3841 56.3665 22.3841C58.059 22.3841 59.2923 23.0566 60.2077 23.9157L61.7148 22.3989C60.4432 21.1725 58.7507 20.2334 56.3783 20.2334C52.0779 20.2334 48.4692 23.7587 48.4692 28.075C48.4692 32.4031 52.075 35.9165 56.3783 35.9165C58.7007 35.9165 60.4432 35.1522 61.8207 33.7125C63.2247 32.2994 63.6692 30.3057 63.6692 28.6971C63.6692 28.1964 63.6309 27.7461 63.5515 27.364H56.3518C56.3547 27.361 56.3547 27.3877 56.3547 27.3877ZM109.834 29.0526C109.413 27.9179 108.142 25.8324 105.534 25.8324C102.95 25.8324 100.801 27.8794 100.801 30.8863C100.801 33.7243 102.926 35.9402 105.784 35.9402C108.08 35.9402 109.416 34.5271 109.967 33.6977L108.262 32.5482C107.697 33.3925 106.911 33.9465 105.796 33.9465C104.669 33.9465 103.88 33.431 103.356 32.4149L110.07 29.6154C110.07 29.6184 109.834 29.0526 109.834 29.0526ZM102.988 30.7411C102.935 28.7889 104.495 27.7965 105.61 27.7965C106.491 27.7965 107.223 28.232 107.474 28.8659L102.988 30.7411ZM97.5336 35.638H99.7382V20.7903H97.5336V35.638ZM93.9131 26.967H93.8337C93.3362 26.3716 92.3914 25.8324 91.1846 25.8324C88.6797 25.8324 86.372 28.0513 86.372 30.9011C86.372 33.7391 88.6679 35.9313 91.1846 35.9313C92.3767 35.9313 93.3362 35.3892 93.8337 34.7819H93.9131V35.5077C93.9131 37.4362 92.8888 38.4761 91.2375 38.4761C89.8865 38.4761 89.0476 37.4984 88.7062 36.6808L86.79 37.4866C87.3404 38.8197 88.8092 40.4698 91.2346 40.4698C93.819 40.4698 96.0089 38.9382 96.0089 35.2026V26.1346H93.9249V26.967H93.9131ZM91.3818 33.9495C89.86 33.9495 88.5884 32.6697 88.5884 30.9011C88.5884 29.1177 89.86 27.8261 91.3818 27.8261C92.8888 27.8261 94.0574 29.1325 94.0574 30.9011C94.0721 32.6697 92.8918 33.9495 91.3818 33.9495ZM120.157 20.7903H114.885V35.638H117.09V30.0153H120.16C122.6 30.0153 124.999 28.2349 124.999 25.4088C124.999 22.5826 122.609 20.7903 120.157 20.7903ZM120.222 27.9416H117.087V22.8463H120.222C121.873 22.8463 122.806 24.2179 122.806 25.394C122.806 26.5582 121.861 27.9416 120.222 27.9416ZM133.835 25.8176C132.234 25.8176 130.583 26.5315 129.9 28.0868L131.854 28.9044C132.275 28.0868 133.046 27.8083 133.862 27.8083C135.004 27.8083 136.158 28.4956 136.184 29.7221V29.8791C135.79 29.6539 134.924 29.3103 133.888 29.3103C131.778 29.3103 129.638 30.4716 129.638 32.6489C129.638 34.6427 131.369 35.9224 133.296 35.9224C134.777 35.9224 135.592 35.25 136.102 34.4708H136.181V35.6203H138.306V29.9324C138.306 27.284 136.352 25.8176 133.835 25.8176ZM133.558 33.9495C132.837 33.9495 131.828 33.594 131.828 32.6815C131.828 31.5321 133.088 31.0966 134.162 31.0966C135.133 31.0966 135.592 31.307 136.169 31.5973C136.01 32.9304 134.892 33.9376 133.558 33.9495ZM146.059 26.1346L143.528 32.5749H143.448L140.826 26.1346H138.453L142.389 35.1374L140.146 40.1409H142.442L148.496 26.1346H146.059ZM126.215 35.638H128.419V20.7903H126.215V35.638Z" fill="white"/>
<path fill-rule="evenodd" clip-rule="evenodd" d="M12.314 8.94913C11.9726 9.31943 11.7754 9.88526 11.7754 10.6259V36.8937C11.7754 37.6343 11.9726 38.2002 12.3258 38.5557L12.4171 38.6357L27.0401 23.9183V23.5895L12.4053 8.86914L12.314 8.94913Z" fill="url(#paint0_linear_725_1516)"/>
<path fill-rule="evenodd" clip-rule="evenodd" d="M31.9081 28.8399L27.0308 23.9311V23.5875L31.9081 18.6787L32.014 18.7439L37.7832 22.044C39.4345 22.9802 39.4345 24.5266 37.7832 25.4745L32.014 28.7747L31.9081 28.8399Z" fill="url(#paint1_linear_725_1516)"/>
<path fill-rule="evenodd" clip-rule="evenodd" d="M32.0125 28.7742L27.0292 23.7588L12.3149 38.568C12.8536 39.1486 13.7572 39.2138 14.7668 38.648L32.0125 28.7742Z" fill="url(#paint2_linear_725_1516)"/>
<path fill-rule="evenodd" clip-rule="evenodd" d="M32.0125 18.7438L14.7668 8.88485C13.7572 8.30421 12.8506 8.3842 12.3149 8.96483L27.0292 23.7592L32.0125 18.7438Z" fill="url(#paint3_linear_725_1516)"/>
<path opacity="0.2" fill-rule="evenodd" clip-rule="evenodd" d="M31.906 28.667L14.7781 38.4608C13.8214 39.0148 12.9678 38.9763 12.4174 38.4726L12.3262 38.5645L12.4174 38.6445C12.9678 39.1451 13.8214 39.1866 14.7781 38.6326L32.0237 28.7736L31.906 28.667Z" fill="black"/>
<path opacity="0.12" fill-rule="evenodd" clip-rule="evenodd" d="M37.7834 25.3022L31.8936 28.6675L31.9995 28.7742L37.7687 25.474C38.5958 25 39.002 24.3779 39.002 23.7588C38.9519 24.3276 38.531 24.8667 37.7834 25.3022Z" fill="black"/>
<path opacity="0.25" fill-rule="evenodd" clip-rule="evenodd" d="M14.7659 9.05599L37.7808 22.2151C38.5284 22.6387 38.9493 23.1927 39.0141 23.7585C39.0141 23.1394 38.6079 22.5173 37.7808 22.0433L14.7659 8.88416C13.1147 7.93322 11.7754 8.72716 11.7754 10.6261V10.7979C11.7754 8.89601 13.1147 8.11689 14.7659 9.05599Z" fill="white"/>
</g>
<defs>
<filter id="filter0_b_725_1516" x="-45" y="-45" width="250" height="137.518" filterUnits="userSpaceOnUse" color-interpolation-filters="sRGB">
<feFlood flood-opacity="0" result="BackgroundImageFix"/>
<feGaussianBlur in="BackgroundImageFix" stdDeviation="22.5"/>
<feComposite in2="SourceAlpha" operator="in" result="effect1_backgroundBlur_725_1516"/>
<feBlend mode="normal" in="SourceGraphic" in2="effect1_backgroundBlur_725_1516" result="shape"/>
</filter>
<filter id="filter1_b_725_1516" x="-22.7829" y="-22.6062" width="205.915" height="92.7299" filterUnits="userSpaceOnUse" color-interpolation-filters="sRGB">
<feFlood flood-opacity="0" result="BackgroundImageFix"/>
<feGaussianBlur in="BackgroundImageFix" stdDeviation="11.3456"/>
<feComposite in2="SourceAlpha" operator="in" result="effect1_backgroundBlur_725_1516"/>
<feBlend mode="normal" in="SourceGraphic" in2="effect1_backgroundBlur_725_1516" result="shape"/>
</filter>
<linearGradient id="paint0_linear_725_1516" x1="25.7285" y1="10.3427" x2="2.28484" y2="16.5492" gradientUnits="userSpaceOnUse">
<stop stop-color="#00A0FF"/>
<stop offset="0.007" stop-color="#00A1FF"/>
<stop offset="0.26" stop-color="#00BEFF"/>
<stop offset="0.512" stop-color="#00D2FF"/>
<stop offset="0.76" stop-color="#00DFFF"/>
<stop offset="1" stop-color="#00E3FF"/>
</linearGradient>
<linearGradient id="paint1_linear_725_1516" x1="39.9365" y1="23.7592" x2="11.3764" y2="23.7592" gradientUnits="userSpaceOnUse">
<stop stop-color="#FFE000"/>
<stop offset="0.409" stop-color="#FFBD00"/>
<stop offset="0.775" stop-color="#FFA500"/>
<stop offset="1" stop-color="#FF9C00"/>
</linearGradient>
<linearGradient id="paint2_linear_725_1516" x1="29.3026" y1="26.488" x2="10.3191" y2="58.2339" gradientUnits="userSpaceOnUse">
<stop stop-color="#FF3A44"/>
<stop offset="1" stop-color="#C31162"/>
</linearGradient>
<linearGradient id="paint3_linear_725_1516" x1="8.60984" y1="0.212767" x2="17.0791" y2="14.3913" gradientUnits="userSpaceOnUse">
<stop stop-color="#32A071"/>
<stop offset="0.069" stop-color="#2DA771"/>
<stop offset="0.476" stop-color="#15CF74"/>
<stop offset="0.801" stop-color="#06E775"/>
<stop offset="1" stop-color="#00F076"/>
</linearGradient>
<clipPath id="clip0_725_1516">
<rect width="160" height="47.5174" fill="white"/>
</clipPath>
</defs>
</svg>
