<svg width="160" height="48" viewBox="0 0 160 48" fill="none" xmlns="http://www.w3.org/2000/svg">
<g clip-path="url(#clip0_725_1512)">
<g filter="url(#filter0_b_725_1512)">
<path d="M152.613 0.581055H7.38245C3.64394 0.581055 0.613281 3.44279 0.613281 6.97292V40.2401C0.613281 43.7702 3.64394 46.6319 7.38245 46.6319H152.613C156.352 46.6319 159.382 43.7702 159.382 40.2401V6.97292C159.382 3.44279 156.352 0.581055 152.613 0.581055Z" fill="#D9D9D9" fill-opacity="0.01"/>
<path d="M152.613 0.581055H7.38245C3.64394 0.581055 0.613281 3.44279 0.613281 6.97292V40.2401C0.613281 43.7702 3.64394 46.6319 7.38245 46.6319H152.613C156.352 46.6319 159.382 43.7702 159.382 40.2401V6.97292C159.382 3.44279 156.352 0.581055 152.613 0.581055Z" stroke="white" stroke-opacity="0.1" stroke-width="1.08053"/>
</g>
<path d="M31.7147 24.2821C31.7278 23.312 32.0006 22.3609 32.5076 21.5171C33.0147 20.6733 33.7395 19.9643 34.6147 19.4562C34.0587 18.7064 33.3251 18.0894 32.4724 17.6542C31.6196 17.219 30.6711 16.9776 29.7022 16.9491C27.6356 16.7446 25.6322 18.1169 24.5789 18.1169C23.5056 18.1169 21.8839 16.9688 20.1372 17.0034C19.0079 17.038 17.9074 17.3483 16.9428 17.9039C15.9782 18.4595 15.1824 19.2415 14.6331 20.1738C12.2522 24.0649 14.0281 29.784 16.3081 32.9292C17.4489 34.4699 18.7822 36.1901 20.5264 36.1295C22.2339 36.0626 22.8714 35.101 24.9322 35.101C26.9739 35.101 27.5714 36.1295 29.3514 36.0901C31.1839 36.0626 32.3381 34.5431 33.4381 32.9882C34.2578 31.8909 34.8887 30.678 35.3072 29.3945C34.2431 28.9694 33.335 28.258 32.6962 27.3488C32.0573 26.4397 31.716 25.3732 31.7147 24.2821ZM28.3522 14.8804C29.3512 13.7481 29.8432 12.2927 29.7239 10.8232C28.1981 10.9746 26.7886 11.6633 25.7764 12.7519C25.2813 13.2838 24.9021 13.9026 24.6604 14.573C24.4188 15.2434 24.3194 15.9521 24.3681 16.6588C25.1314 16.6663 25.8865 16.5101 26.5767 16.2021C27.2668 15.8941 27.8739 15.4421 28.3522 14.8804Z" fill="white"/>
<path d="M51.1471 15.7852V9.99057H52.9188C53.4063 9.99057 53.8163 10.0567 54.1488 10.1889C54.4805 10.3148 54.7505 10.5028 54.9571 10.7538C55.1713 10.9978 55.323 11.2976 55.4113 11.6533C55.5071 12.0018 55.5555 12.3992 55.5555 12.8462C55.5555 13.3057 55.5038 13.6999 55.4005 14.0281C55.321 14.3136 55.1939 14.5853 55.0238 14.8331C54.8836 15.0349 54.703 15.2089 54.4921 15.3453C54.3101 15.4661 54.1127 15.5647 53.9046 15.6388C53.7055 15.7018 53.5171 15.7435 53.3396 15.7647C53.163 15.7781 53.0146 15.7852 52.8971 15.7852H51.1471ZM50.0946 9.15332V16.6216H52.808C53.4663 16.6216 54.0338 16.5351 54.5138 16.3604C54.9675 16.2031 55.3743 15.9448 55.6996 15.6074C56.0096 15.2721 56.2388 14.8645 56.3863 14.3837C56.5338 13.8959 56.608 13.3372 56.608 12.71C56.608 11.51 56.2788 10.6177 55.6221 10.0323C54.9646 9.44604 54.0263 9.15332 52.808 9.15332H50.0946ZM58.6471 13.9234C58.6471 13.5953 58.6913 13.3057 58.7805 13.0547C58.8755 12.7966 59.0055 12.581 59.1671 12.4063C59.3296 12.2324 59.518 12.0994 59.7321 12.0089C59.9506 11.9192 60.1864 11.8729 60.4246 11.8729C60.6629 11.8729 60.8986 11.9192 61.1171 12.0089C61.3388 12.0994 61.5305 12.2324 61.693 12.4063C61.8555 12.581 61.9813 12.7966 62.0696 13.0547C62.1655 13.3065 62.2138 13.5953 62.2138 13.9234C62.2138 14.2508 62.1655 14.5435 62.0696 14.8016C61.9813 15.0534 61.8555 15.2658 61.693 15.4397C61.5323 15.606 61.336 15.7379 61.1171 15.8269C60.8986 15.9166 60.6629 15.9629 60.4246 15.9629C60.1864 15.9629 59.9506 15.9166 59.7321 15.8269C59.5176 15.736 59.3252 15.6042 59.1671 15.4397C58.9966 15.2522 58.8652 15.036 58.7796 14.8024C58.6913 14.5435 58.6471 14.2516 58.6471 13.9234ZM57.6496 13.9234C57.6496 14.3208 57.7088 14.6898 57.8271 15.0321C57.9455 15.3736 58.123 15.6735 58.3588 15.9316C58.5955 16.1826 58.8871 16.3809 59.2338 16.5272C59.5813 16.6673 59.9796 16.7365 60.4305 16.7365C60.8888 16.7365 61.2871 16.6673 61.6263 16.5272C61.9598 16.3902 62.2582 16.187 62.5013 15.9316C62.738 15.6735 62.9155 15.3729 63.0338 15.0321C63.1513 14.6898 63.2105 14.3208 63.2105 13.9226C63.2105 13.5253 63.1521 13.1562 63.0338 12.8147C62.9254 12.4828 62.7439 12.1763 62.5013 11.9153C62.2608 11.6544 61.962 11.4471 61.6263 11.3086C61.2871 11.1615 60.888 11.0883 60.4305 11.0883C59.9805 11.0883 59.5805 11.1615 59.2338 11.3086C58.8982 11.4469 58.5994 11.6539 58.3588 11.9145C58.123 12.1663 57.9455 12.4653 57.8271 12.8147C57.7062 13.1731 57.6463 13.5473 57.6496 13.9234ZM70.2138 16.6216L72.0413 11.2142H71.0663L69.7821 15.6388H69.7596L68.563 11.2142H67.533L66.3813 15.6388H66.3588L65.063 11.2142H64.0213L65.8605 16.6216H66.8796L68.0313 12.3229H68.0538L69.2171 16.6216H70.2138ZM73.158 11.2134V16.6216H74.0996V13.5677C74.0996 13.3238 74.133 13.1003 74.1996 12.8981C74.2676 12.6987 74.3766 12.5139 74.5205 12.3544C74.6605 12.2009 74.8346 12.0821 75.0413 11.9987C75.2555 11.9153 75.5063 11.8728 75.7946 11.8728C76.1563 11.8728 76.4405 11.9704 76.6471 12.1663C76.8538 12.3615 76.9571 12.6258 76.9571 12.9611V16.6216H77.8988V13.0649C77.8988 12.7722 77.8655 12.5078 77.7988 12.2702C77.7405 12.0262 77.633 11.8169 77.478 11.643C77.3132 11.4623 77.104 11.3223 76.8688 11.2354C76.618 11.1371 76.3038 11.0883 75.9271 11.0883C75.078 11.0883 74.458 11.4164 74.0663 12.0719H74.0446V11.2142H73.158V11.2134ZM79.5896 9.15332V16.6216H80.5313V9.15411H79.5896V9.15332ZM82.8988 13.9234C82.8988 13.5953 82.943 13.3057 83.0321 13.0547C83.1271 12.7966 83.2571 12.581 83.4188 12.4063C83.5813 12.2324 83.7696 12.0994 83.9838 12.0089C84.2023 11.9193 84.438 11.873 84.6763 11.873C84.9146 11.873 85.1503 11.9193 85.3688 12.0089C85.5905 12.0994 85.7821 12.2324 85.9446 12.4063C86.1071 12.581 86.233 12.7966 86.3213 13.0547C86.4171 13.3065 86.4655 13.5953 86.4655 13.9234C86.4655 14.2508 86.4171 14.5435 86.3213 14.8016C86.233 15.0534 86.1071 15.2658 85.9446 15.4397C85.784 15.606 85.5877 15.738 85.3688 15.8269C85.1503 15.9166 84.9146 15.9628 84.6763 15.9628C84.438 15.9628 84.2023 15.9166 83.9838 15.8269C83.7692 15.7359 83.5769 15.6041 83.4188 15.4397C83.2484 15.2522 83.1169 15.0359 83.0313 14.8024C82.943 14.5435 82.8988 14.2516 82.8988 13.9234ZM81.9013 13.9234C81.9013 14.3208 81.9605 14.6898 82.0788 15.0321C82.1971 15.3736 82.3746 15.6735 82.6105 15.9316C82.8471 16.1826 83.1388 16.3809 83.4855 16.5272C83.833 16.6673 84.2313 16.7365 84.6821 16.7365C85.1396 16.7365 85.5388 16.6673 85.878 16.5272C86.2116 16.3904 86.5101 16.1872 86.753 15.9316C86.9896 15.6735 87.1671 15.3729 87.2846 15.0321C87.403 14.6898 87.4621 14.3208 87.4621 13.9226C87.4621 13.5253 87.403 13.1562 87.2846 12.8147C87.1768 12.4827 86.9956 12.1762 86.753 11.9153C86.5127 11.6542 86.2138 11.4469 85.878 11.3086C85.5388 11.1615 85.1396 11.0883 84.6821 11.0883C84.2313 11.0883 83.833 11.1615 83.4855 11.3086C83.1499 11.4469 82.851 11.6539 82.6105 11.9145C82.3746 12.1663 82.1971 12.4653 82.0788 12.8147C81.9578 13.1731 81.8979 13.5473 81.9013 13.9234ZM93.8671 16.6004C93.7046 16.6917 93.4796 16.7365 93.1913 16.7365C92.948 16.7365 92.7521 16.6736 92.6046 16.5485C92.4638 16.4163 92.3938 16.203 92.3938 15.9111C92.1355 16.203 91.833 16.4163 91.4855 16.5485C91.1455 16.6744 90.7763 16.7373 90.378 16.7373C90.1196 16.7373 89.8721 16.709 89.6355 16.6531C89.4201 16.6032 89.2169 16.5145 89.0371 16.3919C88.865 16.2702 88.725 16.1127 88.628 15.9316C88.5262 15.7109 88.477 15.4718 88.4838 15.2312C88.4838 14.9243 88.5388 14.6725 88.6496 14.4774C88.7605 14.2822 88.9046 14.1256 89.0821 14.0068C89.2663 13.8809 89.473 13.7865 89.7021 13.7243C89.9388 13.6614 90.1788 13.6095 90.4221 13.567C90.6805 13.519 90.9246 13.4835 91.153 13.4631C91.3896 13.4348 91.5963 13.4001 91.7738 13.3584C91.9505 13.3096 92.0913 13.2435 92.1946 13.1594C92.298 13.0689 92.3496 12.9398 92.3496 12.773C92.3496 12.5771 92.3088 12.4205 92.228 12.3016C92.1571 12.1865 92.0534 12.0925 91.9288 12.0302C91.8016 11.9646 91.6626 11.9219 91.5188 11.9043C91.3721 11.8834 91.2239 11.8729 91.0755 11.8728C90.6771 11.8728 90.3446 11.946 90.0788 12.0931C89.813 12.2324 89.6688 12.5007 89.6471 12.8981H88.7055C88.7196 12.5637 88.7938 12.2812 88.9271 12.0506C89.0596 11.8209 89.2371 11.6359 89.4588 11.4967C89.6796 11.3503 89.9313 11.2449 90.2113 11.1827C90.4996 11.1197 90.8063 11.0883 91.1313 11.0883C91.3896 11.0883 91.6446 11.1064 91.8955 11.141C92.1538 11.1756 92.3863 11.2488 92.593 11.3605C92.7996 11.4652 92.9663 11.6147 93.0913 11.8106C93.2171 12.0058 93.2796 12.2599 93.2796 12.5739V15.3563C93.2796 15.5649 93.2913 15.7183 93.313 15.8159C93.343 15.9142 93.4313 15.963 93.5788 15.963C93.6605 15.963 93.7563 15.9449 93.8671 15.9103V16.6004ZM92.3388 13.829C92.1991 13.9218 92.0404 13.9861 91.873 14.0178C91.6813 14.0525 91.478 14.0832 91.2638 14.1115C91.0571 14.1319 90.8471 14.1603 90.633 14.1949C90.4346 14.2187 90.2406 14.2679 90.0563 14.3413C89.8914 14.4078 89.7467 14.5122 89.6355 14.645C89.5321 14.7709 89.4805 14.944 89.4805 15.1675C89.4805 15.3146 89.5105 15.4397 89.5696 15.5444C89.6355 15.642 89.7171 15.7222 89.813 15.7852C89.9163 15.8481 90.0346 15.893 90.1671 15.9205C90.3005 15.9489 90.4405 15.963 90.588 15.963C90.8988 15.963 91.1646 15.9237 91.3855 15.8474C91.6071 15.7639 91.788 15.6632 91.9288 15.5444C92.0688 15.4185 92.1721 15.2863 92.2388 15.147C92.3055 15.0007 92.3388 14.8637 92.3388 14.7386V13.829ZM95.6513 13.9651C95.6513 13.6999 95.6813 13.4418 95.7405 13.1908C95.7996 12.9398 95.8955 12.7171 96.028 12.522C96.1617 12.3262 96.3442 12.1643 96.5596 12.0506C96.7813 11.9326 97.0513 11.8728 97.3688 11.8728C97.6938 11.8728 97.9705 11.9326 98.1996 12.0506C98.428 12.1624 98.613 12.3127 98.753 12.5007C98.9013 12.6896 99.008 12.9083 99.0746 13.1594C99.2082 13.6535 99.2082 14.1713 99.0746 14.6655C99.0155 14.9094 98.9155 15.1297 98.7755 15.3249C98.6355 15.5129 98.4538 15.6664 98.233 15.7852C98.0113 15.9032 97.7413 15.963 97.4238 15.963C97.1476 15.9686 96.874 15.9111 96.6263 15.7954C96.4083 15.6867 96.2192 15.5328 96.073 15.3453C95.9293 15.151 95.8207 14.9357 95.7513 14.7079C95.6846 14.464 95.6513 14.2161 95.6513 13.9651ZM100.082 16.6216V9.15411H99.1413V11.9357H99.1188C99.0197 11.7797 98.8878 11.6445 98.7313 11.5384C98.5873 11.4291 98.4266 11.341 98.2546 11.2771C98.0917 11.2093 97.9208 11.1602 97.7455 11.1308C97.5882 11.1037 97.4287 11.0895 97.2688 11.0883C96.833 11.0883 96.4488 11.1654 96.1171 11.3188C95.7921 11.4652 95.5188 11.6674 95.2971 11.9247C95.0757 12.1889 94.9102 12.4907 94.8096 12.8139C94.7045 13.1681 94.6523 13.5344 94.6546 13.9022C94.6546 14.2854 94.7105 14.6481 94.8213 14.9896C94.9313 15.3319 95.0938 15.6317 95.308 15.8898C95.5296 16.1472 95.803 16.3533 96.128 16.5068C96.4605 16.6602 96.848 16.7365 97.2913 16.7365C97.6896 16.7365 98.0555 16.6704 98.388 16.5382C98.7196 16.4053 98.9638 16.1896 99.1188 15.8898H99.1413V16.6216H100.082ZM105.744 13.9234C105.744 13.5953 105.788 13.3057 105.876 13.0547C105.973 12.7966 106.102 12.581 106.265 12.4063C106.427 12.2324 106.615 12.0994 106.83 12.0089C107.048 11.9191 107.284 11.8728 107.522 11.8728C107.76 11.8728 107.995 11.9191 108.214 12.0089C108.435 12.0994 108.627 12.2324 108.79 12.4063C108.952 12.581 109.078 12.7966 109.166 13.0547C109.263 13.3065 109.31 13.5953 109.31 13.9234C109.31 14.2508 109.263 14.5435 109.166 14.8016C109.078 15.0534 108.952 15.2658 108.79 15.4397C108.629 15.606 108.433 15.738 108.214 15.8269C107.995 15.9167 107.76 15.963 107.522 15.963C107.284 15.963 107.048 15.9167 106.83 15.8269C106.615 15.7359 106.423 15.6041 106.265 15.4397C106.094 15.2521 105.962 15.0359 105.876 14.8024C105.784 14.5177 105.739 14.2211 105.744 13.9234ZM104.747 13.9234C104.747 14.3208 104.806 14.6898 104.924 15.0321C105.042 15.3736 105.22 15.6735 105.455 15.9316C105.692 16.1826 105.984 16.3809 106.33 16.5272C106.678 16.6673 107.076 16.7365 107.527 16.7365C107.985 16.7365 108.384 16.6673 108.724 16.5272C109.057 16.39 109.356 16.1869 109.599 15.9316C109.835 15.6735 110.012 15.3729 110.13 15.0321C110.249 14.6898 110.307 14.3208 110.307 13.9226C110.307 13.5253 110.249 13.1562 110.13 12.8147C110.022 12.483 109.841 12.1766 109.599 11.9153C109.358 11.6545 109.059 11.4473 108.724 11.3086C108.384 11.1615 107.985 11.0883 107.527 11.0883C107.076 11.0883 106.678 11.1615 106.33 11.3086C105.995 11.4471 105.696 11.654 105.455 11.9145C105.22 12.1663 105.042 12.4653 104.924 12.8147C104.803 13.1732 104.744 13.5474 104.747 13.9234ZM111.639 11.2134V16.6216H112.58V13.5677C112.58 13.3238 112.614 13.1003 112.68 12.8981C112.754 12.6888 112.861 12.5078 113.001 12.3544C113.142 12.2009 113.315 12.0821 113.522 11.9987C113.736 11.9153 113.987 11.8728 114.275 11.8728C114.637 11.8728 114.921 11.9704 115.128 12.1663C115.335 12.3615 115.439 12.6258 115.439 12.9611V16.6216H116.38V13.0649C116.38 12.7722 116.347 12.5078 116.28 12.2702C116.221 12.0262 116.114 11.8169 115.959 11.643C115.794 11.4621 115.585 11.3222 115.35 11.2354C115.099 11.1371 114.785 11.0883 114.408 11.0883C113.559 11.0883 112.939 11.4164 112.547 12.0719H112.525V11.2142H111.639V11.2134ZM122.627 11.2134V9.5924H121.685V11.2134H120.711V11.9987H121.685V15.4397C121.685 15.6908 121.711 15.893 121.763 16.0464C121.804 16.1834 121.884 16.3068 121.996 16.4021C122.12 16.4915 122.264 16.5524 122.417 16.5799C122.594 16.6075 122.805 16.6216 123.048 16.6216H123.768V15.8371H123.336C123.189 15.8371 123.066 15.834 122.97 15.8269C122.896 15.8178 122.824 15.7928 122.76 15.7537C122.708 15.7176 122.669 15.6662 122.65 15.6074C122.633 15.5244 122.625 15.44 122.627 15.3555V11.9987H123.768V11.2142H122.627V11.2134ZM125.035 9.15332V16.6216H125.977V13.5677C125.977 13.3238 126.01 13.1003 126.077 12.8981C126.15 12.6888 126.258 12.5078 126.398 12.3544C126.539 12.2009 126.712 12.0821 126.919 11.9987C127.133 11.9153 127.384 11.8728 127.672 11.8728C128.034 11.8728 128.318 11.9704 128.525 12.1663C128.732 12.3615 128.835 12.6258 128.835 12.9611V16.6216H129.776V13.0649C129.78 12.7971 129.746 12.5299 129.677 12.2702C129.618 12.0262 129.51 11.8169 129.355 11.643C129.191 11.4621 128.982 11.3222 128.746 11.2354C128.495 11.1371 128.181 11.0883 127.805 11.0883C127.635 11.0883 127.458 11.1064 127.273 11.141C127.093 11.1768 126.919 11.2331 126.753 11.3086C126.59 11.3786 126.44 11.4738 126.31 11.5903C126.176 11.702 126.073 11.8421 126 12.0089H125.977V9.15332H125.035ZM135.389 13.4001H132.099C132.114 13.1908 132.162 12.9957 132.243 12.8147C132.32 12.6326 132.433 12.4658 132.575 12.3229C132.715 12.1836 132.882 12.075 133.074 11.9987C133.273 11.9153 133.495 11.8728 133.739 11.8728C133.975 11.8728 134.189 11.9153 134.381 11.9987C134.58 12.075 134.75 12.1836 134.89 12.3229C135.038 12.4551 135.153 12.6156 135.234 12.8037C135.322 12.9925 135.374 13.1908 135.389 13.4001ZM136.297 14.9062H135.367C135.285 15.2619 135.115 15.5271 134.857 15.701C134.606 15.8757 134.281 15.963 133.882 15.963C133.605 15.9689 133.329 15.9187 133.074 15.8159C132.858 15.7275 132.665 15.5957 132.509 15.4295C132.362 15.2639 132.253 15.0716 132.188 14.8645C132.121 14.6438 132.09 14.4143 132.099 14.1847H136.385C136.398 13.8369 136.365 13.489 136.286 13.1491C136.215 12.7923 136.072 12.4515 135.865 12.1451C135.664 11.8363 135.386 11.578 135.056 11.392C134.725 11.1898 134.304 11.0883 133.794 11.0883C133.402 11.0883 133.04 11.1583 132.708 11.2976C132.384 11.4361 132.094 11.6356 131.855 11.8838C131.613 12.1445 131.425 12.4462 131.301 12.773C131.165 13.1354 131.098 13.5176 131.102 13.9022C131.113 14.2883 131.176 14.6715 131.29 15.0424C131.409 15.391 131.582 15.6908 131.811 15.9418C132.04 16.1928 132.32 16.3879 132.653 16.5272C132.993 16.6673 133.391 16.7365 133.85 16.7365C134.499 16.7365 135.038 16.5831 135.466 16.2762C135.895 15.9693 136.171 15.5121 136.297 14.9062ZM70.0546 25.9045C72.883 25.9045 74.7471 28.015 74.7471 31.2758C74.7471 34.5453 72.8938 36.6463 70.0971 36.6463C69.3886 36.6812 68.684 36.5271 68.064 36.2014C67.4439 35.8758 66.9336 35.3918 66.5913 34.805H66.538V40.0165H64.2505V26.0147H66.4646V27.7647H66.5063C66.8644 27.1807 67.3835 26.6993 68.0083 26.3717C68.6331 26.0442 69.3403 25.8827 70.0546 25.9045ZM82.3196 25.9045C85.1471 25.9045 87.0113 28.015 87.0113 31.2758C87.0113 34.5453 85.158 36.6463 82.3613 36.6463C81.6528 36.6812 80.9482 36.5271 80.3281 36.2014C79.7081 35.8758 79.1977 35.3918 78.8555 34.805H78.803V40.0165H76.5155V26.0147H78.7288V27.7647H78.7705C79.1286 27.1806 79.6478 26.6991 80.2728 26.3715C80.8978 26.044 81.6052 25.8826 82.3196 25.9045ZM98.7405 21.8639C101.97 21.8639 104.184 23.5738 104.258 26.0643H101.949C101.811 24.6243 100.55 23.7548 98.708 23.7548C96.8646 23.7548 95.6046 24.6337 95.6046 25.914C95.6046 26.9346 96.4096 27.535 98.3796 27.9945L100.063 28.3848C103.199 29.0851 104.502 30.2749 104.502 32.3853C104.502 35.0851 102.225 36.7761 98.6021 36.7761C95.2121 36.7761 92.9238 35.1253 92.7763 32.5152H95.1171C95.2871 33.9465 96.7596 34.886 98.7713 34.886C100.699 34.886 102.086 33.9457 102.086 32.656C102.086 31.5355 101.25 30.8651 99.2688 30.4055L97.288 29.9546C94.4813 29.3141 93.1788 28.0748 93.1788 26.0643C93.1788 23.5738 95.4771 21.8639 98.7405 21.8639ZM118.07 25.8849C121.3 25.8849 123.355 27.9646 123.355 31.275C123.355 34.5957 121.311 36.6668 118.07 36.6668C114.829 36.6668 112.785 34.5957 112.785 31.2758C112.785 27.9654 114.85 25.8849 118.07 25.8849ZM136.591 25.8849C139.674 25.8849 141.613 27.8843 141.613 31.0744V31.814H133.742V31.9455C133.706 32.3327 133.758 32.7227 133.893 33.0897C134.029 33.4567 134.246 33.7922 134.529 34.074C134.813 34.3558 135.157 34.5775 135.538 34.7243C135.919 34.871 136.329 34.9396 136.74 34.9254C137.281 34.973 137.823 34.8548 138.287 34.5883C138.75 34.3218 139.11 33.9212 139.314 33.446H141.485C141.178 35.3558 139.208 36.6668 136.687 36.6668C133.445 36.6668 131.434 34.6154 131.434 31.3254C131.434 28.0252 133.456 25.8849 136.591 25.8849ZM109.438 23.5242V26.0139H111.557V27.7246H109.438V33.5255C109.438 34.4265 109.863 34.8459 110.794 34.8459C111.045 34.842 111.297 34.8255 111.546 34.7963V36.496C111.128 36.5699 110.702 36.6034 110.276 36.5959C108.02 36.5959 107.14 35.7957 107.14 33.7553V27.7246H105.52V26.0139H107.14V23.5242H109.438ZM57.3121 22.1039L62.8305 36.5354H60.3205L58.923 32.6355H53.0971L51.698 36.5361H49.2305L54.7488 22.1047L57.3121 22.1039ZM130.156 25.9045C130.42 25.903 130.682 25.9305 130.94 25.9848V28.0047C130.607 27.9086 130.26 27.8645 129.912 27.8741C129.58 27.8614 129.249 27.9168 128.941 28.0364C128.634 28.156 128.357 28.337 128.131 28.5671C127.904 28.7971 127.733 29.0707 127.629 29.369C127.525 29.6673 127.491 29.9833 127.529 30.2954V36.5354H125.241V26.0147H127.423V27.8049H127.475C127.623 27.2455 127.97 26.7511 128.458 26.4049C128.947 26.0587 129.546 25.8825 130.156 25.9045ZM118.07 27.664C116.216 27.664 115.115 29.0151 115.115 31.2758C115.115 33.5554 116.216 34.886 118.07 34.886C119.923 34.886 121.025 33.5562 121.025 31.2758C121.025 29.0049 119.923 27.664 118.07 27.664ZM69.4513 27.7451C67.7038 27.7451 66.5288 29.1748 66.5288 31.2758C66.5288 33.3957 67.7038 34.8152 69.4513 34.8152C71.2305 34.8152 72.3963 33.4248 72.3963 31.2758C72.3963 29.1457 71.2305 27.7451 69.4513 27.7451ZM81.7163 27.7451C79.9688 27.7451 78.793 29.1748 78.793 31.2758C78.793 33.3957 79.968 34.8152 81.7163 34.8152C83.4946 34.8152 84.6605 33.4248 84.6605 31.2758C84.6605 29.1457 83.4946 27.7451 81.7163 27.7451ZM56.0413 24.5039H55.978L53.7005 30.8344H58.318L56.0413 24.5039ZM136.591 27.6341C136.219 27.6318 135.849 27.6993 135.505 27.8326C135.16 27.9658 134.846 28.1623 134.582 28.4107C134.319 28.659 134.109 28.9542 133.967 29.2793C133.825 29.6045 133.752 29.953 133.753 30.3048H139.324C139.345 29.9566 139.289 29.608 139.16 29.2811C139.032 28.9542 138.833 28.6559 138.576 28.4051C138.32 28.1542 138.011 27.9563 137.669 27.8236C137.328 27.6909 136.961 27.6264 136.591 27.6341Z" fill="white"/>
</g>
<defs>
<filter id="filter0_b_725_1512" x="-22.6179" y="-22.6501" width="205.232" height="92.5131" filterUnits="userSpaceOnUse" color-interpolation-filters="sRGB">
<feFlood flood-opacity="0" result="BackgroundImageFix"/>
<feGaussianBlur in="BackgroundImageFix" stdDeviation="11.3456"/>
<feComposite in2="SourceAlpha" operator="in" result="effect1_backgroundBlur_725_1512"/>
<feBlend mode="normal" in="SourceGraphic" in2="effect1_backgroundBlur_725_1512" result="shape"/>
</filter>
<clipPath id="clip0_725_1512">
<rect width="160" height="47.2131" fill="white"/>
</clipPath>
</defs>
</svg>
