<svg width="79" height="25" viewBox="0 0 79 25" fill="none" xmlns="http://www.w3.org/2000/svg">
<path d="M10.2153 13.2561C10.2153 11.1576 8.60565 9.56742 6.70459 9.56742C4.74014 9.56742 3.10515 11.1576 3.10515 13.2561C3.10515 15.3156 4.74014 16.9188 6.69191 16.9188C8.60565 16.9188 10.2153 15.3156 10.2153 13.2561ZM13.4597 13.2692C13.4597 17.2057 10.7983 20.1644 7.28762 20.1644C5.63996 20.1644 4.20782 19.4866 3.20658 18.2873L3.21926 24.5829C3.21926 24.8437 3.06712 25 2.83908 25H0.418213C0.164818 25 0 24.8437 0 24.5829V7.01271C0 6.76515 0.164818 6.59565 0.405705 6.59565H1.81248C2.01516 6.59565 2.15462 6.71299 2.24337 6.88232L2.78837 8.74633C3.81497 7.20829 5.39924 6.30879 7.3003 6.30879C10.7983 6.30879 13.4597 9.25467 13.4597 13.2692Z" fill="#EAEAEA"/>
<path d="M26.7638 11.9787V19.4342C26.7638 19.695 26.6117 19.8384 26.3583 19.8384H23.9503C23.6967 19.8384 23.5446 19.695 23.5446 19.4342V12.1741C23.5446 10.4797 22.6828 9.29356 20.9464 9.29356C19.2355 9.29356 18.1328 10.636 18.1328 12.2262V19.4474C18.1328 19.695 17.9807 19.8384 17.74 19.8384H15.2939C15.0404 19.8384 14.9136 19.695 14.9136 19.4474V0.3911C14.9136 0.130501 15.0404 0.000114441 15.2939 0.000114441H17.74C17.9807 0.000114441 18.1328 0.130501 18.1328 0.3911V8.23778C18.9821 7.06464 20.3762 6.28267 21.9224 6.28267C24.9262 6.28267 26.7638 8.47248 26.7638 11.9787Z" fill="#EAEAEA"/>
<path d="M38.5593 13.2563C38.5593 11.1708 36.9244 9.56758 34.9726 9.56758C33.0589 9.56758 31.4619 11.1708 31.4619 13.2563C31.4619 15.3157 33.0715 16.919 34.9853 16.919C36.937 16.919 38.5593 15.3157 38.5593 13.2563ZM41.6138 7.05198V19.4606C41.6138 19.7084 41.449 19.8777 41.2081 19.8777H39.8015C39.5986 19.8777 39.4465 19.7605 39.3704 19.591L38.8508 17.8052C37.8242 19.2911 36.2526 20.1646 34.3896 20.1646C30.8789 20.1646 28.2173 17.2058 28.2173 13.2693C28.2173 9.25483 30.8662 6.30895 34.3769 6.30895C36.2399 6.30895 37.8242 7.18237 38.8508 8.69434L39.3704 6.90856C39.4465 6.73923 39.5986 6.62188 39.8015 6.62188H41.2081C41.449 6.62188 41.6138 6.79139 41.6138 7.05198Z" fill="#EAEAEA"/>
<path d="M55.7101 7.02612L49.8926 19.6171C49.766 19.8779 49.6139 20.0083 49.3224 20.0083H49.2337C48.9423 20.0083 48.7901 19.8779 48.6633 19.6171L42.8461 7.02612C42.6939 6.70016 42.8966 6.47867 43.1375 6.47867H45.8751C46.1159 6.47867 46.3187 6.63514 46.4075 6.85662L49.2717 13.8561L52.136 6.85662C52.2247 6.63514 52.4403 6.47867 52.681 6.47867H55.4186C55.6594 6.47867 55.8622 6.70016 55.7101 7.02612Z" fill="#EAEAEA"/>
<path d="M58.1152 11.9767L58.1798 11.7606C58.6311 10.2555 59.9618 9.24469 61.4907 9.24469C63.1118 9.24469 64.4835 10.257 64.9039 11.7638L64.9634 11.9767H58.1152ZM61.5668 6.47607C57.9124 6.47607 55.0498 9.45454 55.0498 13.2566C55.0498 17.0441 57.9847 20.011 61.7314 20.011C63.1523 20.011 65.0999 19.3006 66.1652 18.3938C66.2756 18.2885 66.2925 18.1056 66.1986 17.9653L64.9103 16.2252C64.8112 16.098 64.6342 16.0687 64.5198 16.1633C63.731 16.758 62.5732 17.2034 61.8202 17.2034C60.1725 17.2034 58.726 16.2692 58.2207 14.8792L58.1394 14.6538H66.2941C67.1517 14.6538 67.7922 13.572 67.7922 12.6048C67.7922 9.16822 65.0576 6.47607 61.5668 6.47607Z" fill="#EAEAEA"/>
<path d="M78.9326 7.80814C78.9285 7.80004 78.9228 7.79369 78.9184 7.78594C78.9071 7.77149 78.898 7.75687 78.8851 7.74418C78.869 7.72374 78.8565 7.70048 78.8372 7.68374C77.9625 6.94071 76.7838 6.45846 75.77 6.45846C74.2492 6.45846 72.7027 7.46209 71.879 8.94797L71.3215 7.04502C71.2327 6.87569 71.0933 6.75835 70.8904 6.75835H69.4837C69.2428 6.75835 69.0781 6.92767 69.0781 7.18827V19.6101C69.0781 19.8707 69.2174 20.0142 69.471 20.0142H71.9044C72.1452 20.0142 72.2972 19.8707 72.2972 19.6101V12.7541C72.2972 10.9031 73.6154 9.3261 75.377 9.3261C75.9474 9.3261 76.6697 9.65189 77.2529 10.1472C77.269 10.1616 77.2859 10.1653 77.3024 10.177C77.412 10.3223 77.6098 10.3902 77.773 10.2899C77.9534 10.1793 78.1064 10.0342 78.2413 9.86967C78.3818 9.69858 78.5243 9.52291 78.6435 9.33543C78.8942 8.94092 78.9622 8.47964 78.9994 8.01923C79.0056 7.94328 78.9754 7.8714 78.9326 7.80814Z" fill="#EAEAEA"/>
</svg>
