<svg width="21" height="16" viewBox="0 0 21 16" fill="none" xmlns="http://www.w3.org/2000/svg">
<path d="M13.8204 0.259766C13.6218 0.615453 13.4448 0.982785 13.2904 1.35977C11.7732 1.11982 10.2276 1.11982 8.71041 1.35977C8.556 0.982785 8.37901 0.615453 8.18041 0.259766C6.75119 0.503967 5.36181 0.941303 4.05041 1.55977C1.70535 4.94405 0.641843 9.05272 1.05041 13.1498C2.57864 14.2986 4.29386 15.1748 6.12041 15.7398C6.53632 15.1904 6.90751 14.6085 7.2304 13.9998C6.63448 13.78 6.0617 13.502 5.52041 13.1698C5.66887 13.071 5.8093 12.9606 5.94041 12.8398C7.51887 13.6001 9.24837 13.9949 11.0004 13.9949C12.7524 13.9949 14.4819 13.6001 16.0604 12.8398C16.2004 12.9598 16.3404 13.0698 16.4804 13.1698C15.9362 13.4994 15.364 13.7805 14.7704 14.0098C15.0799 14.6323 15.4412 15.2277 15.8504 15.7898C17.6747 15.2268 19.3869 14.3504 20.9104 13.1998C21.3288 9.10197 20.2644 4.98995 17.9104 1.60977C16.6137 0.978503 15.2381 0.524436 13.8204 0.259766ZM7.68041 10.8098C7.17999 10.7738 6.71295 10.5455 6.37733 10.1725C6.0417 9.79962 5.8636 9.31119 5.88041 8.80977C5.86107 8.30768 6.03829 7.81785 6.37442 7.44438C6.71054 7.0709 7.17907 6.84324 7.68041 6.80977C8.18175 6.84324 8.65027 7.0709 8.98639 7.44438C9.32252 7.81785 9.49974 8.30768 9.4804 8.80977C9.49974 9.31185 9.32252 9.80168 8.98639 10.1752C8.65027 10.5486 8.18175 10.7763 7.68041 10.8098ZM14.3204 10.8098C13.82 10.7738 13.3529 10.5455 13.0173 10.1725C12.6817 9.79962 12.5036 9.31119 12.5204 8.80977C12.5011 8.30768 12.6783 7.81785 13.0144 7.44438C13.3505 7.0709 13.8191 6.84324 14.3204 6.80977C14.8227 6.84074 15.2927 7.06767 15.6294 7.44171C15.966 7.81576 16.1423 8.30702 16.1204 8.80977C16.1423 9.31251 15.966 9.80377 15.6294 10.1778C15.2927 10.5519 14.8227 10.7788 14.3204 10.8098Z" fill="white"/>
</svg>
