<svg width="24" height="24" viewBox="0 0 24 24" fill="none" xmlns="http://www.w3.org/2000/svg">
<path d="M12 8.33203C9.97603 8.33203 8.33203 9.97603 8.33203 12C8.33203 14.024 9.97603 15.672 12 15.672C14.024 15.672 15.672 14.024 15.672 12C15.672 9.97603 14.024 8.33203 12 8.33203Z" fill="white"/>
<path d="M17.536 2H6.464C4.004 2 2 4.004 2 6.464V17.536C2 20 4.004 22 6.464 22H17.536C20 22 22 20 22 17.536V6.464C22 4.004 20 2 17.536 2ZM12 18.48C8.428 18.48 5.52 15.572 5.52 12C5.52 8.428 8.428 5.524 12 5.524C15.572 5.524 18.48 8.428 18.48 12C18.48 15.572 15.572 18.48 12 18.48ZM18.616 6.7C17.86 6.7 17.244 6.088 17.244 5.332C17.244 4.576 17.86 3.96 18.616 3.96C19.372 3.96 19.988 4.576 19.988 5.332C19.988 6.088 19.372 6.7 18.616 6.7Z" fill="white"/>
</svg>
