<svg width="48" height="53" viewBox="0 0 48 53" fill="none" xmlns="http://www.w3.org/2000/svg">
<path d="M18.3635 1.53694C21.8514 -0.512313 26.1486 -0.512313 29.6365 1.53694L42.3635 9.01449C45.8514 11.0637 48 14.8509 48 18.9494V33.9045C48 38.003 45.8514 41.7902 42.3635 43.8394L29.6365 51.317C26.1486 53.3662 21.8514 53.3662 18.3635 51.317L5.6365 43.8394C2.14862 41.7902 0 38.003 0 33.9045V18.9494C0 14.8509 2.14862 11.0637 5.63651 9.01449L18.3635 1.53694Z" fill="url(#paint0_linear_725_1478)"/>
<path fill-rule="evenodd" clip-rule="evenodd" d="M40.1778 12.7345L27.4509 5.25698C25.3123 4.00048 22.6878 4.00048 20.5492 5.25698L7.82216 12.7345C5.6745 13.9964 4.31461 16.3558 4.31461 18.9494V33.9045C4.31461 36.4981 5.6745 38.8576 7.82216 40.1194L20.5492 47.597C22.6878 48.8535 25.3123 48.8535 27.4509 47.597L40.1778 40.1194C42.3255 38.8576 43.6854 36.4981 43.6854 33.9045V18.9494C43.6854 16.3558 42.3255 13.9964 40.1778 12.7345ZM29.6365 1.53694C26.1486 -0.512313 21.8514 -0.512313 18.3635 1.53694L5.63651 9.01449C2.14862 11.0637 0 14.8509 0 18.9494V33.9045C0 38.003 2.14862 41.7902 5.6365 43.8394L18.3635 51.317C21.8514 53.3662 26.1486 53.3662 29.6365 51.317L42.3635 43.8394C45.8514 41.7902 48 38.003 48 33.9045V18.9494C48 14.8509 45.8514 11.0637 42.3635 9.01449L29.6365 1.53694Z" fill="#A6ACA4"/>
<path d="M18.805 30.1279V21.9449H16.8169V32.0296H22.6516V30.1279H18.805Z" fill="white"/>
<path d="M23.5218 32.0296H30.2642V30.1135H26.4752L28.4489 28.1398C29.3998 27.1889 30.1057 26.1372 30.1057 24.9127C30.1057 22.8957 28.5065 21.7432 26.7777 21.7432C25.4091 21.7432 24.0981 22.4347 23.4498 23.8754L25.1209 24.855C25.4523 24.1347 26.0286 23.6737 26.8065 23.6737C27.5701 23.6737 28.1176 24.1779 28.1176 24.9847C28.1176 25.6618 27.6133 26.3245 26.965 27.0016L23.5218 30.5457V32.0296Z" fill="white"/>
<defs>
<linearGradient id="paint0_linear_725_1478" x1="23.4667" y1="1.7618" x2="23.4667" y2="51.0921" gradientUnits="userSpaceOnUse">
<stop stop-color="#383C3D"/>
<stop offset="0.775996" stop-color="#303030"/>
<stop offset="1" stop-color="#101010"/>
</linearGradient>
</defs>
</svg>
