<svg width="48" height="53" viewBox="0 0 48 53" fill="none" xmlns="http://www.w3.org/2000/svg">
<path d="M18.3635 1.53694C21.8514 -0.512313 26.1486 -0.512313 29.6365 1.53694L42.3635 9.01449C45.8514 11.0637 48 14.8509 48 18.9494V33.9045C48 38.003 45.8514 41.7902 42.3635 43.8394L29.6365 51.317C26.1486 53.3662 21.8514 53.3662 18.3635 51.317L5.6365 43.8394C2.14862 41.7902 0 38.003 0 33.9045V18.9494C0 14.8509 2.14862 11.0637 5.63651 9.01449L18.3635 1.53694Z" fill="url(#paint0_linear_725_1457)"/>
<path fill-rule="evenodd" clip-rule="evenodd" d="M40.1778 12.7345L27.4509 5.25698C25.3123 4.00048 22.6878 4.00048 20.5492 5.25698L7.82216 12.7345C5.6745 13.9964 4.31461 16.3558 4.31461 18.9494V33.9045C4.31461 36.4981 5.6745 38.8576 7.82216 40.1194L20.5492 47.597C22.6878 48.8535 25.3123 48.8535 27.4509 47.597L40.1778 40.1194C42.3255 38.8576 43.6854 36.4981 43.6854 33.9045V18.9494C43.6854 16.3558 42.3255 13.9964 40.1778 12.7345ZM29.6365 1.53694C26.1486 -0.512313 21.8514 -0.512313 18.3635 1.53694L5.63651 9.01449C2.14862 11.0637 0 14.8509 0 18.9494V33.9045C0 38.003 2.14862 41.7902 5.6365 43.8394L18.3635 51.317C21.8514 53.3662 26.1486 53.3662 29.6365 51.317L42.3635 43.8394C45.8514 41.7902 48 38.003 48 33.9045V18.9494C48 14.8509 45.8514 11.0637 42.3635 9.01449L29.6365 1.53694Z" fill="#FEDA02"/>
<path d="M18.7274 30.1284V21.9453H16.7393V32.0301H22.574V30.1284H18.7274Z" fill="white"/>
<path d="M28.0986 26.0368L29.9858 23.5877V21.9453H23.6469V23.8038H27.5943L25.6062 26.397L26.3697 27.5496H26.8019C27.8392 27.5496 28.4155 28.1114 28.4155 28.9182C28.4155 29.7394 27.8392 30.2868 26.8019 30.2868C25.8511 30.2868 25.2892 29.869 25.0443 29.1199L23.3443 30.0996C23.9206 31.5402 25.2892 32.2318 26.8019 32.2318C28.7036 32.2318 30.4036 31.0792 30.4036 28.9182C30.4036 27.4343 29.4096 26.4258 28.0986 26.0368Z" fill="white"/>
<defs>
<linearGradient id="paint0_linear_725_1457" x1="23.4667" y1="1.7618" x2="23.4667" y2="51.0921" gradientUnits="userSpaceOnUse">
<stop stop-color="#34280A"/>
<stop offset="0.775996" stop-color="#362A0C"/>
<stop offset="1" stop-color="#2B2109"/>
</linearGradient>
</defs>
</svg>
